<?xml version="1.0" encoding="iso-8859-1"?>
<!-- Uploaded to: SVG Repo, www.svgrepo.com, Generator: SVG Repo Mixer Tools -->
<svg height="800px" width="800px" version="1.1" id="Layer_1" xmlns="http://www.w3.org/2000/svg" xmlns:xlink="http://www.w3.org/1999/xlink" 
	 viewBox="0 0 512 512" xml:space="preserve">
<path style="fill:#E1E1E3;" d="M255.99,90.042c-4.807,0-8.705-3.897-8.705-8.705V46.624c0-4.807,3.897-8.705,8.705-8.705
	c4.807,0,8.705,3.897,8.705,8.705v34.713C264.694,86.145,260.797,90.042,255.99,90.042z"/>
<path style="fill:#D9D9DB;" d="M463.879,509.904H48.121C21.545,509.904,0,488.359,0,461.783l0,0h512l0,0
	C512,488.359,490.455,509.904,463.879,509.904z"/>
<path style="fill:#E1E1E3;" d="M33.658,461.783H0c0,26.576,21.545,48.121,48.121,48.121h33.658
	C55.203,509.904,33.658,488.359,33.658,461.783z"/>
<g>
	<path style="fill:#C8C6CD;" d="M458.611,461.783c0,26.576-21.545,48.121-48.121,48.121h53.389
		c26.576,0,48.121-21.545,48.121-48.121H458.611z"/>
	<path style="fill:#C8C6CD;" d="M396.483,461.783c0,26.576-13.851,48.121-30.936,48.121h34.322
		c17.086,0,30.936-21.545,30.936-48.121H396.483z"/>
</g>
<path style="fill:#EDA156;" d="M275.872,32.412c0,10.975-8.896,19.871-19.871,19.871c-10.975,0-19.871-8.896-19.871-19.871
	c0-8.152,10.963-22.141,16.604-28.799c1.714-2.023,4.821-2.023,6.536,0C264.909,10.271,275.872,24.26,275.872,32.412z"/>
<path style="fill:#D9D9DB;" d="M279.687,175.406h-47.371V77.973c0-5.198,4.214-9.412,9.412-9.412h28.547
	c5.198,0,9.412,4.214,9.412,9.412v97.433H279.687z"/>
<g>
	<path style="fill:#F9DE8F;" d="M441.295,318.594H70.704c-18.026,0-32.638,14.612-32.638,32.638v110.55h435.868v-110.55
		C473.934,333.207,459.321,318.594,441.295,318.594z"/>
	<path style="fill:#F9DE8F;" d="M392.016,175.406H120.927c-15.629,0-28.3,12.671-28.3,28.3v114.889h327.689V203.705
		C420.316,188.075,407.645,175.406,392.016,175.406z"/>
</g>
<g>
	<path style="fill:#F7CF6D;" d="M441.295,318.594h-28.639c18.026,0,32.638,14.612,32.638,32.638v110.55h28.639v-110.55
		C473.934,333.207,459.321,318.594,441.295,318.594z"/>
	<path style="fill:#F7CF6D;" d="M392.016,175.406h-28.629c15.629,0,28.817,12.573,28.817,28.202v114.889l28.111,0.098V203.705
		C420.316,188.075,407.645,175.406,392.016,175.406z"/>
</g>
<path style="fill:#F09EA0;" d="M392.016,175.406H120.927c-15.629,0-28.3,12.671-28.3,28.3v36.719h0.48
	c18.194-0.427,17.913-23.188,35.247-23.286c17.394-0.097,23.907,27.057,41.713,27.107c17.919,0.05,24.792-27.413,43.394-27.572
	c18.148-0.156,24.944,25.871,43.685,25.854c18.572-0.016,26.262-25.589,43.407-25.087c16.801,0.491,20.939,25.392,37.747,25.887
	c17.264,0.507,25.571-25.402,43.407-25.087c17.548,0.309,21.033,26.804,38.129,27.061l0.48-0.033v-41.562
	C420.316,188.075,407.645,175.406,392.016,175.406z"/>
<path style="fill:#EF8990;" d="M392.016,175.406h-28.629c15.629,0,28.817,12.573,28.817,28.202v18.598
	c9.471,7.468,14.6,22.898,27.63,23.094l0.48-0.032v-41.562C420.316,188.075,407.645,175.406,392.016,175.406z"/>
<path style="fill:#F09EA0;" d="M441.286,318.594H70.694c-18.026,0-32.638,14.612-32.638,32.638v34.05
	c17.709-0.814,17.598-23.159,34.777-23.256c17.394-0.098,23.908,27.057,41.713,27.107c17.919,0.05,24.792-27.413,43.394-27.572
	c18.148-0.156,24.944,25.871,43.685,25.854c18.572-0.016,26.262-25.589,43.407-25.087c16.801,0.491,20.939,25.392,37.747,25.887
	c17.264,0.507,25.571-25.402,43.407-25.087c17.548,0.309,21.707,24.03,38.802,24.287c18.572-0.016,26.262-25.589,43.407-25.087
	c16.801,0.491,20.939,25.392,37.747,25.887c11.187,0.328,18.613-10.434,27.307-17.967l0.472-0.245v-18.77
	C473.924,333.207,459.312,318.594,441.286,318.594z"/>
<path style="fill:#EF8990;" d="M441.295,318.594h-28.639c18.026,0,32.638,14.612,32.638,32.638v36.929
	c0.283,0.023,0.568,0.045,0.859,0.053c11.187,0.328,18.613-10.434,27.307-17.967l0.472-0.245v-18.77
	C473.934,333.207,459.321,318.594,441.295,318.594z"/>
</svg>